<svg xmlns="http://www.w3.org/2000/svg" width="28" height="20" viewBox="0 0 28 20">
  <metadata><?xpacket begin="﻿" id="W5M0MpCehiHzreSzNTczkc9d"?>
<x:xmpmeta xmlns:x="adobe:ns:meta/" x:xmptk="Adobe XMP Core 5.6-c142 79.160924, 2017/07/13-01:06:39        ">
   <rdf:RDF xmlns:rdf="http://www.w3.org/1999/02/22-rdf-syntax-ns#">
      <rdf:Description rdf:about=""/>
   </rdf:RDF>
</x:xmpmeta>
                                                                                                    
                                                                                                    
                                                                                                    
                                                                                                    
                                                                                                    
                                                                                                    
                                                                                                    
                                                                                                    
                                                                                                    
                                                                                                    
                                                                                                    
                                                                                                    
                                                                                                    
                                                                                                    
                                                                                                    
                                                                                                    
                                                                                                    
                                                                                                    
                                                                                                    
                                                                                                    
                           
<?xpacket end="w"?></metadata>
<defs>
    <style>
      .cls-1 {
        fill: #f8f8f6;
        fill-rule: evenodd;
      }
    </style>
  </defs>
  <path id="Forma_1_копия" data-name="Forma 1 копия" class="cls-1" d="M43.671,42.448a0.441,0.441,0,0,1-.309-0.123l-5.2-4.9a0.455,0.455,0,0,1-.02-0.641,0.448,0.448,0,0,1,.638-0.02l5.2,4.9A0.455,0.455,0,0,1,44,42.3,0.451,0.451,0,0,1,43.671,42.448Zm-17.342,0a0.454,0.454,0,0,1-.31-0.784l5.2-4.9a0.45,0.45,0,0,1,.638.02,0.455,0.455,0,0,1-.02.641l-5.2,4.9A0.442,0.442,0,0,1,26.329,42.448ZM46.743,47H23.257A2.266,2.266,0,0,1,21,44.733V29.267A2.264,2.264,0,0,1,23.257,27H46.743A2.263,2.263,0,0,1,49,29.267V44.733A2.266,2.266,0,0,1,46.743,47Zm-23.486-19.1A1.36,1.36,0,0,0,21.9,29.267V44.733a1.359,1.359,0,0,0,1.354,1.36H46.743a1.359,1.359,0,0,0,1.354-1.36V29.267a1.36,1.36,0,0,0-1.354-1.361H23.257ZM35,39.28a2.524,2.524,0,0,1-1.658-.6L21.749,28.517a0.457,0.457,0,0,1-.044-0.641,0.45,0.45,0,0,1,.637-0.043L33.935,38a1.691,1.691,0,0,0,2.128,0L47.642,27.848a0.451,0.451,0,0,1,.637.045,0.455,0.455,0,0,1-.043.64L36.658,38.679A2.526,2.526,0,0,1,35,39.28Z" transform="translate(-21 -27)"/>
</svg>
